PathFileType	4	(X/Y/Z)	Patient4_TMGait_0pt3_02_left_12.trc.trc
DataRate	CameraRate	NumFrames	NumMarkers	Units	OrigDataRate	OrigDataStartFrame	OrigNumFrames
51.851851851852	51.851851851852	4	33	mm	51.851851851852	1	       141
Frame#	Time	Sacral			L.Shoulder			Chest			R.Shoulder			Neck			R.ASIS			L.ASIS			R.Thigh.Superior			R.Thigh.Lateral			R.Thigh.Inferior			R.Patella			L.Thigh.Superior			L.Thigh.Lateral			L.Thigh.Inferior			L.Patella			L.Shank.Superior			L.Shank.Lateral			L.Shank.Inferior			R.Shank.Superior			R.Shank.Lateral			R.Shank.Inferior			R.Heel			R.Midfoot.Superior			R.Midfoot.Lateral			R.Toe			L.Heel			L.Midfoot.Lateral			L.Midfoot.Superior			L.Toe			L.Elbow			L.Wrist			R.Elbow			R.Wrist			
		X1	Y1	Z1	X2	Y2	Z2	X3	Y3	Z3	X4	Y4	Z4	X5	Y5	Z5	X6	Y6	Z6	X7	Y7	Z7	X8	Y8	Z8	X9	Y9	Z9	X10	Y10	Z10	X11	Y11	Z11	X12	Y12	Z12	X13	Y13	Z13	X14	Y14	Z14	X15	Y15	Z15	X16	Y16	Z16	X17	Y17	Z17	X18	Y18	Z18	X19	Y19	Z19	X20	Y20	Z20	X21	Y21	Z21	X22	Y22	Z22	X23	Y23	Z23	X24	Y24	Z24	X25	Y25	Z25	X26	Y26	Z26	X27	Y27	Z27	X28	Y28	Z28	X29	Y29	Z29	X30	Y30	Z30	X31	Y31	Z31	X32	Y32	Z32	X33	Y33	Z33	

1	23.340000000000	736.478021480240	1016.016587297453	538.210234228311	970.413462270405	1443.296261137413	413.465549762390	1033.750725993984	1360.852350749213	587.371597803537	919.440732462827	1431.102381498218	743.548077221487	931.099516829072	1498.177377204617	569.013509882478	944.180580738869	942.576349848845	691.786199849082	971.782668582083	963.210029489732	418.767370395686	987.799968825675	743.212294823050	664.523126023040	897.925192099496	632.376702613513	706.310554644037	986.882563777918	582.961772986123	636.158728744244	987.069927768238	494.532926136400	640.285362451101	1019.289887226743	753.866775222879	435.763108714809	952.298231315334	640.277099722236	348.121191092800	1038.964110700918	557.490643219932	411.356447465160	1033.454088751728	469.013935120844	400.057468078689	957.530243223894	416.299008472980	383.943380931617	814.228047760032	399.024996351332	325.652708484503	780.981477959705	269.668841180802	369.317608074401	955.667523404295	406.035071234635	637.975937936221	874.945408540078	302.452829780812	687.941475847649	922.232771183255	209.016729031029	624.836512497922	786.729241462786	43.325896378858	582.800692401730	960.477806087651	99.354820503055	619.244937296148	871.894093558425	36.239926591629	655.439688887983	1079.387402996552	47.957430060400	640.256860582131	579.941086866873	218.024931070195	393.867864777231	638.855759267828	184.755278866437	308.557751870377	743.771437566684	183.741128786429	334.401810764708	817.659361752407	74.352624486776	288.200102542272	1025.832203368190	1102.420239878199	279.141778524604	1242.955607157125	971.909969675001	354.259828890611	844.942216342576	1089.132864241606	856.714260277386	914.916663085838	846.648952401419	927.459332998960	
2	23.359285714286	734.940644774146	1013.798963639626	540.141785655775	967.953557970208	1440.811463446022	412.912545460309	1032.441970838757	1358.912763691714	586.661692402486	919.374548907640	1429.513387374892	743.532959430568	929.673792815417	1496.235071251846	568.674963893304	944.123636636706	940.871657067877	692.224475784992	969.691967002007	961.949031440463	419.009421221739	989.283626357249	742.098477634650	662.136001428725	901.116163150620	630.220260124151	704.740221134429	988.912488542829	581.516443640613	632.803477730544	989.808865919028	492.223849118725	636.420277605586	1019.867860532251	754.154627051503	436.589253415228	955.515030408456	639.556691034156	349.412227797492	1042.350151815635	558.161400467324	414.383787203297	1038.722603422076	469.921713607056	402.990632415428	964.606220569950	416.069738933921	385.102673577795	822.592939136203	395.005087654975	325.419964067325	793.352992040136	264.227560942188	367.486061409950	956.688130986666	403.885130478870	634.650109373076	875.637006014460	301.429482495919	686.473580150243	919.523523989891	207.608566005113	622.281008101790	780.903813119589	43.337546075985	582.408098707557	954.760796397738	98.918374910390	618.280843464613	865.990427623008	36.469079531388	655.075641689970	1073.592444415751	47.116895263067	640.099782172858	594.374600587774	206.126019184672	390.175952476107	654.573000598645	175.673883817217	304.895073624770	759.197886328728	177.520065455275	331.369489182836	836.470826378691	71.122895247064	284.440673161646	1013.554934695118	1096.689293284700	282.798796489650	1211.675075510375	943.854948363771	348.044566781901	853.148707634136	1086.406970910510	858.688432856544	932.963858627939	847.054665984755	928.663051790392	
3	23.378571428571	733.283380168151	1011.228398198770	542.164018475212	965.331473158584	1437.954362908711	412.190706879279	1031.083441149093	1356.657232733856	585.770287712363	919.363377208021	1427.663965104170	743.412816048801	928.222151759122	1493.982065556651	568.184000241845	944.108368571783	938.893088300218	692.548802060652	967.406565970482	960.393621893973	419.118926900308	990.929677835456	740.818356912372	659.541418824425	904.713634922459	627.841472924623	703.106056819818	991.274802119193	579.923102394139	629.274854927982	992.925161451545	489.698517384074	632.416485695000	1020.403272910927	754.275406681585	437.706599046464	958.919192324784	638.628077020200	350.969908853834	1045.824761227724	558.710902868776	417.827169096071	1044.197167256687	470.711631584399	406.336291718780	972.029266748037	415.642799230211	386.640736444571	831.458993343194	390.512396340339	325.468241498118	806.441770649124	258.346356710475	366.051221010866	957.980737334223	401.513927330831	631.248112758512	876.494324185328	300.286602459975	684.933717597992	916.808509492512	206.064383814243	619.703568983711	774.942846181046	43.352109325633	582.033678809015	948.886130507037	98.479816799763	617.321307644218	859.945801957175	36.687457872545	654.737207645562	1067.654830729771	46.272312624693	639.948386525893	609.710160967500	193.470189422880	386.765018442252	671.295197072545	165.881882673267	301.604393073831	775.544639722599	170.814329288751	328.809086720459	856.413061355073	67.566789652356	281.355945601271	1001.048362958084	1090.626577617579	286.358821395082	1178.894308209472	915.985552418493	341.354080220244	861.478857793063	1083.396075789263	860.470321043131	951.976621642116	847.584049528750	929.342234719149	
4	23.397857142857	731.514188032896	1008.272386879496	544.252577948875	962.546991584043	1434.683142611753	411.231303529371	1029.701889282832	1354.049437786299	584.614873202625	919.454940194629	1425.529684823465	743.117922057899	926.784632808046	1491.385198113025	567.467393146573	944.153767593636	936.614391868143	692.702009548707	964.910905865585	958.485257412075	419.037025876240	992.734901295187	739.348444124479	656.762989150142	908.714809349895	625.238897560852	701.437773675342	993.977927205854	578.171056833191	625.629068351783	996.413139426058	486.954704829973	628.352332638851	1020.860423476398	754.191045940140	439.154911823089	962.458707064356	637.464153026983	352.826125460779	1049.342159271210	559.120018726155	421.686119563190	1049.813664333355	471.363841826932	410.101908304854	979.736820625601	414.996995204323	388.635345165418	840.778785897132	385.517067398622	325.933591697777	820.195824143735	252.066295765631	365.246279692233	959.558769269082	398.916410041441	627.852037620202	877.509419897530	299.016428014010	683.348349067407	914.133652159241	204.384676716570	617.182418729595	768.950650535396	43.372762409980	581.699485235713	942.946821403365	98.051268837924	616.399070534211	853.865832245784	36.882059112643	654.443913303709	1061.677488566297	45.448343993022	639.810332073883	625.939941917751	180.154720162474	383.954680962611	688.981481052714	155.421789911048	299.013868813444	792.743711327251	163.679286262893	327.030050566981	877.386557481028	63.734576368826	279.321251467623	988.483542812081	1084.358591026273	289.587366439064	1145.010589678978	889.397703334848	334.188298698422	869.792994504209	1080.112289720804	861.893295900990	971.888077049869	848.477895867373	929.119342491318	
